<svg width="64" height="64" viewBox="0 0 64 64" fill="none" xmlns="http://www.w3.org/2000/svg">
<path d="M31.9996 0C20.0993 0 10.4551 9.64438 10.4551 21.5445C10.4551 33.6898 16.4748 36.2773 23.1283 44.3564C31.0866 54.0201 31.9996 64 31.9996 64C31.9996 64 32.9126 54.0201 40.8708 44.3565C47.5243 36.2772 53.5441 33.6897 53.5441 21.5446C53.5441 9.64437 43.8998 0 31.9996 0ZM31.9996 28.9901C27.8875 28.9901 24.5541 25.6566 24.5541 21.5446C24.5541 17.4326 27.8876 14.0991 31.9996 14.0991C36.1116 14.0991 39.4451 17.4326 39.4451 21.5446C39.4451 25.6566 36.1116 28.9901 31.9996 28.9901Z" fill="#DBFFE2"/>
</svg>
